<mxfile host="app.diagrams.net" agent="Mozilla/5.0 (X11; Linux x86_64) AppleWebKit/537.36 (KHTML, like Gecko) Chrome/139.0.0.0 Safari/537.36" version="28.1.2">
  <diagram name="Page-1" id="s2HexeyQEunA-Kcr0DwH">
    <mxGraphModel dx="926" dy="1601" grid="1" gridSize="10" guides="1" tooltips="1" connect="1" arrows="1" fold="1" page="1" pageScale="1" pageWidth="850" pageHeight="1100" math="0" shadow="0">
      <root>
        <mxCell id="0" />
        <mxCell id="1" parent="0" />
        <mxCell id="t4ue5TNUWWvQ1wn2IJSO-17" value="AbstractUser" style="swimlane;fontStyle=0;childLayout=stackLayout;horizontal=1;startSize=26;fillColor=#fff2cc;horizontalStack=0;resizeParent=1;resizeParentMax=0;resizeLast=0;collapsible=1;marginBottom=0;whiteSpace=wrap;html=1;strokeColor=#d6b656;" parent="1" vertex="1">
          <mxGeometry x="140" y="-50" width="141" height="314" as="geometry" />
        </mxCell>
        <mxCell id="mF9mltyFeMQ6EqQ499wP-30" value="id_user: int" style="text;strokeColor=#d6b656;fillColor=#fff2cc;align=left;verticalAlign=top;spacingLeft=4;spacingRight=4;overflow=hidden;rotatable=0;points=[[0,0.5],[1,0.5]];portConstraint=eastwest;whiteSpace=wrap;html=1;" parent="t4ue5TNUWWvQ1wn2IJSO-17" vertex="1">
          <mxGeometry y="26" width="141" height="26" as="geometry" />
        </mxCell>
        <mxCell id="t4ue5TNUWWvQ1wn2IJSO-18" value="username : string" style="text;strokeColor=#d6b656;fillColor=#fff2cc;align=left;verticalAlign=top;spacingLeft=4;spacingRight=4;overflow=hidden;rotatable=0;points=[[0,0.5],[1,0.5]];portConstraint=eastwest;whiteSpace=wrap;html=1;" parent="t4ue5TNUWWvQ1wn2IJSO-17" vertex="1">
          <mxGeometry y="52" width="141" height="26" as="geometry" />
        </mxCell>
        <mxCell id="t4ue5TNUWWvQ1wn2IJSO-19" value="firstname : string" style="text;strokeColor=#d6b656;fillColor=#fff2cc;align=left;verticalAlign=top;spacingLeft=4;spacingRight=4;overflow=hidden;rotatable=0;points=[[0,0.5],[1,0.5]];portConstraint=eastwest;whiteSpace=wrap;html=1;" parent="t4ue5TNUWWvQ1wn2IJSO-17" vertex="1">
          <mxGeometry y="78" width="141" height="26" as="geometry" />
        </mxCell>
        <mxCell id="t4ue5TNUWWvQ1wn2IJSO-21" value="lastname : string" style="text;strokeColor=#d6b656;fillColor=#fff2cc;align=left;verticalAlign=top;spacingLeft=4;spacingRight=4;overflow=hidden;rotatable=0;points=[[0,0.5],[1,0.5]];portConstraint=eastwest;whiteSpace=wrap;html=1;" parent="t4ue5TNUWWvQ1wn2IJSO-17" vertex="1">
          <mxGeometry y="104" width="141" height="20" as="geometry" />
        </mxCell>
        <mxCell id="t4ue5TNUWWvQ1wn2IJSO-20" value="email : string&lt;div&gt;&lt;br&gt;&lt;/div&gt;" style="text;strokeColor=#d6b656;fillColor=#fff2cc;align=left;verticalAlign=top;spacingLeft=4;spacingRight=4;overflow=hidden;rotatable=0;points=[[0,0.5],[1,0.5]];portConstraint=eastwest;whiteSpace=wrap;html=1;" parent="t4ue5TNUWWvQ1wn2IJSO-17" vertex="1">
          <mxGeometry y="124" width="141" height="26" as="geometry" />
        </mxCell>
        <mxCell id="t4ue5TNUWWvQ1wn2IJSO-22" value="&lt;div&gt;password : string&lt;/div&gt;" style="text;strokeColor=#d6b656;fillColor=#fff2cc;align=left;verticalAlign=top;spacingLeft=4;spacingRight=4;overflow=hidden;rotatable=0;points=[[0,0.5],[1,0.5]];portConstraint=eastwest;whiteSpace=wrap;html=1;" parent="t4ue5TNUWWvQ1wn2IJSO-17" vertex="1">
          <mxGeometry y="150" width="141" height="34" as="geometry" />
        </mxCell>
        <mxCell id="t4ue5TNUWWvQ1wn2IJSO-27" value="last_login: Date" style="text;strokeColor=#d6b656;fillColor=#fff2cc;align=left;verticalAlign=top;spacingLeft=4;spacingRight=4;overflow=hidden;rotatable=0;points=[[0,0.5],[1,0.5]];portConstraint=eastwest;whiteSpace=wrap;html=1;" parent="t4ue5TNUWWvQ1wn2IJSO-17" vertex="1">
          <mxGeometry y="184" width="141" height="26" as="geometry" />
        </mxCell>
        <mxCell id="t4ue5TNUWWvQ1wn2IJSO-25" value="is active : boolean" style="text;strokeColor=#d6b656;fillColor=#fff2cc;align=left;verticalAlign=top;spacingLeft=4;spacingRight=4;overflow=hidden;rotatable=0;points=[[0,0.5],[1,0.5]];portConstraint=eastwest;whiteSpace=wrap;html=1;" parent="t4ue5TNUWWvQ1wn2IJSO-17" vertex="1">
          <mxGeometry y="210" width="141" height="26" as="geometry" />
        </mxCell>
        <mxCell id="t4ue5TNUWWvQ1wn2IJSO-26" value="is active : boolean" style="text;strokeColor=#d6b656;fillColor=#fff2cc;align=left;verticalAlign=top;spacingLeft=4;spacingRight=4;overflow=hidden;rotatable=0;points=[[0,0.5],[1,0.5]];portConstraint=eastwest;whiteSpace=wrap;html=1;" parent="t4ue5TNUWWvQ1wn2IJSO-17" vertex="1">
          <mxGeometry y="236" width="141" height="26" as="geometry" />
        </mxCell>
        <mxCell id="t4ue5TNUWWvQ1wn2IJSO-24" value="is superuser: boolean" style="text;strokeColor=#d6b656;fillColor=#fff2cc;align=left;verticalAlign=top;spacingLeft=4;spacingRight=4;overflow=hidden;rotatable=0;points=[[0,0.5],[1,0.5]];portConstraint=eastwest;whiteSpace=wrap;html=1;" parent="t4ue5TNUWWvQ1wn2IJSO-17" vertex="1">
          <mxGeometry y="262" width="141" height="26" as="geometry" />
        </mxCell>
        <mxCell id="t4ue5TNUWWvQ1wn2IJSO-23" value="&lt;div&gt;group : string&lt;/div&gt;" style="text;strokeColor=#d6b656;fillColor=#fff2cc;align=left;verticalAlign=top;spacingLeft=4;spacingRight=4;overflow=hidden;rotatable=0;points=[[0,0.5],[1,0.5]];portConstraint=eastwest;whiteSpace=wrap;html=1;" parent="t4ue5TNUWWvQ1wn2IJSO-17" vertex="1">
          <mxGeometry y="288" width="141" height="26" as="geometry" />
        </mxCell>
        <mxCell id="mF9mltyFeMQ6EqQ499wP-44" style="edgeStyle=orthogonalEdgeStyle;rounded=0;orthogonalLoop=1;jettySize=auto;html=1;entryX=0;entryY=0.5;entryDx=0;entryDy=0;" parent="1" source="t4ue5TNUWWvQ1wn2IJSO-28" target="mF9mltyFeMQ6EqQ499wP-27" edge="1">
          <mxGeometry relative="1" as="geometry" />
        </mxCell>
        <mxCell id="t4ue5TNUWWvQ1wn2IJSO-28" value="CustomUser" style="swimlane;fontStyle=0;childLayout=stackLayout;horizontal=1;startSize=26;fillColor=#fff2cc;horizontalStack=0;resizeParent=1;resizeParentMax=0;resizeLast=0;collapsible=1;marginBottom=0;whiteSpace=wrap;html=1;strokeColor=#d6b656;" parent="1" vertex="1">
          <mxGeometry x="90" y="400" width="140" height="156" as="geometry" />
        </mxCell>
        <mxCell id="t4ue5TNUWWvQ1wn2IJSO-29" value="phone_number: string" style="text;strokeColor=#d6b656;fillColor=#fff2cc;align=left;verticalAlign=top;spacingLeft=4;spacingRight=4;overflow=hidden;rotatable=0;points=[[0,0.5],[1,0.5]];portConstraint=eastwest;whiteSpace=wrap;html=1;" parent="t4ue5TNUWWvQ1wn2IJSO-28" vertex="1">
          <mxGeometry y="26" width="140" height="26" as="geometry" />
        </mxCell>
        <mxCell id="t4ue5TNUWWvQ1wn2IJSO-30" value="birthday: string" style="text;strokeColor=#d6b656;fillColor=#fff2cc;align=left;verticalAlign=top;spacingLeft=4;spacingRight=4;overflow=hidden;rotatable=0;points=[[0,0.5],[1,0.5]];portConstraint=eastwest;whiteSpace=wrap;html=1;" parent="t4ue5TNUWWvQ1wn2IJSO-28" vertex="1">
          <mxGeometry y="52" width="140" height="26" as="geometry" />
        </mxCell>
        <mxCell id="t4ue5TNUWWvQ1wn2IJSO-34" value="is donor : boolean" style="text;strokeColor=#d6b656;fillColor=#fff2cc;align=left;verticalAlign=top;spacingLeft=4;spacingRight=4;overflow=hidden;rotatable=0;points=[[0,0.5],[1,0.5]];portConstraint=eastwest;whiteSpace=wrap;html=1;" parent="t4ue5TNUWWvQ1wn2IJSO-28" vertex="1">
          <mxGeometry y="78" width="140" height="26" as="geometry" />
        </mxCell>
        <mxCell id="t4ue5TNUWWvQ1wn2IJSO-33" value="blood type : string" style="text;strokeColor=#d6b656;fillColor=#fff2cc;align=left;verticalAlign=top;spacingLeft=4;spacingRight=4;overflow=hidden;rotatable=0;points=[[0,0.5],[1,0.5]];portConstraint=eastwest;whiteSpace=wrap;html=1;" parent="t4ue5TNUWWvQ1wn2IJSO-28" vertex="1">
          <mxGeometry y="104" width="140" height="26" as="geometry" />
        </mxCell>
        <mxCell id="t4ue5TNUWWvQ1wn2IJSO-31" value="wilaya : string" style="text;strokeColor=#d6b656;fillColor=#fff2cc;align=left;verticalAlign=top;spacingLeft=4;spacingRight=4;overflow=hidden;rotatable=0;points=[[0,0.5],[1,0.5]];portConstraint=eastwest;whiteSpace=wrap;html=1;" parent="t4ue5TNUWWvQ1wn2IJSO-28" vertex="1">
          <mxGeometry y="130" width="140" height="26" as="geometry" />
        </mxCell>
        <mxCell id="t4ue5TNUWWvQ1wn2IJSO-35" value="Extends" style="endArrow=block;endSize=16;endFill=0;html=1;rounded=0;exitX=0.5;exitY=0;exitDx=0;exitDy=0;" parent="1" source="t4ue5TNUWWvQ1wn2IJSO-28" edge="1">
          <mxGeometry x="-0.1663" y="7" width="160" relative="1" as="geometry">
            <mxPoint x="250" y="408" as="sourcePoint" />
            <mxPoint x="200" y="270" as="targetPoint" />
            <Array as="points" />
            <mxPoint as="offset" />
          </mxGeometry>
        </mxCell>
        <mxCell id="mF9mltyFeMQ6EqQ499wP-16" value="" style="edgeStyle=orthogonalEdgeStyle;rounded=0;orthogonalLoop=1;jettySize=auto;html=1;" parent="1" source="mF9mltyFeMQ6EqQ499wP-1" target="mF9mltyFeMQ6EqQ499wP-15" edge="1">
          <mxGeometry relative="1" as="geometry" />
        </mxCell>
        <mxCell id="mF9mltyFeMQ6EqQ499wP-1" value="Event" style="swimlane;fontStyle=0;childLayout=stackLayout;horizontal=1;startSize=26;fillColor=#fff2cc;horizontalStack=0;resizeParent=1;resizeParentMax=0;resizeLast=0;collapsible=1;marginBottom=0;whiteSpace=wrap;html=1;strokeColor=#d6b656;" parent="1" vertex="1">
          <mxGeometry x="240" y="650" width="140" height="182" as="geometry" />
        </mxCell>
        <mxCell id="mF9mltyFeMQ6EqQ499wP-2" value="id :int&lt;div&gt;&lt;br&gt;&lt;/div&gt;" style="text;strokeColor=#d6b656;fillColor=#fff2cc;align=left;verticalAlign=top;spacingLeft=4;spacingRight=4;overflow=hidden;rotatable=0;points=[[0,0.5],[1,0.5]];portConstraint=eastwest;whiteSpace=wrap;html=1;" parent="mF9mltyFeMQ6EqQ499wP-1" vertex="1">
          <mxGeometry y="26" width="140" height="26" as="geometry" />
        </mxCell>
        <mxCell id="mF9mltyFeMQ6EqQ499wP-29" value="name : string" style="text;strokeColor=#d6b656;fillColor=#fff2cc;align=left;verticalAlign=top;spacingLeft=4;spacingRight=4;overflow=hidden;rotatable=0;points=[[0,0.5],[1,0.5]];portConstraint=eastwest;whiteSpace=wrap;html=1;" parent="mF9mltyFeMQ6EqQ499wP-1" vertex="1">
          <mxGeometry y="52" width="140" height="26" as="geometry" />
        </mxCell>
        <mxCell id="mF9mltyFeMQ6EqQ499wP-5" value="phone number : string" style="text;strokeColor=#d6b656;fillColor=#fff2cc;align=left;verticalAlign=top;spacingLeft=4;spacingRight=4;overflow=hidden;rotatable=0;points=[[0,0.5],[1,0.5]];portConstraint=eastwest;whiteSpace=wrap;html=1;" parent="mF9mltyFeMQ6EqQ499wP-1" vertex="1">
          <mxGeometry y="78" width="140" height="26" as="geometry" />
        </mxCell>
        <mxCell id="mF9mltyFeMQ6EqQ499wP-4" value="starting : date" style="text;strokeColor=#d6b656;fillColor=#fff2cc;align=left;verticalAlign=top;spacingLeft=4;spacingRight=4;overflow=hidden;rotatable=0;points=[[0,0.5],[1,0.5]];portConstraint=eastwest;whiteSpace=wrap;html=1;" parent="mF9mltyFeMQ6EqQ499wP-1" vertex="1">
          <mxGeometry y="104" width="140" height="26" as="geometry" />
        </mxCell>
        <mxCell id="mF9mltyFeMQ6EqQ499wP-3" value="end :date" style="text;strokeColor=#d6b656;fillColor=#fff2cc;align=left;verticalAlign=top;spacingLeft=4;spacingRight=4;overflow=hidden;rotatable=0;points=[[0,0.5],[1,0.5]];portConstraint=eastwest;whiteSpace=wrap;html=1;" parent="mF9mltyFeMQ6EqQ499wP-1" vertex="1">
          <mxGeometry y="130" width="140" height="26" as="geometry" />
        </mxCell>
        <mxCell id="mF9mltyFeMQ6EqQ499wP-6" value="reserved : boolean" style="text;strokeColor=#d6b656;fillColor=#fff2cc;align=left;verticalAlign=top;spacingLeft=4;spacingRight=4;overflow=hidden;rotatable=0;points=[[0,0.5],[1,0.5]];portConstraint=eastwest;whiteSpace=wrap;html=1;" parent="mF9mltyFeMQ6EqQ499wP-1" vertex="1">
          <mxGeometry y="156" width="140" height="26" as="geometry" />
        </mxCell>
        <mxCell id="mF9mltyFeMQ6EqQ499wP-15" value="" style="shape=waypoint;sketch=0;size=6;pointerEvents=1;points=[];fillColor=#fff2cc;resizable=0;rotatable=0;perimeter=centerPerimeter;snapToPoint=1;strokeColor=#d6b656;fontStyle=0;startSize=26;horizontal=1;" parent="1" vertex="1">
          <mxGeometry x="140" y="550" width="20" height="20" as="geometry" />
        </mxCell>
        <mxCell id="mF9mltyFeMQ6EqQ499wP-17" value="reserver" style="text;align=center;fontStyle=1;verticalAlign=middle;spacingLeft=3;spacingRight=3;strokeColor=none;rotatable=0;points=[[0,0.5],[1,0.5]];portConstraint=eastwest;html=1;" parent="1" vertex="1">
          <mxGeometry x="70" y="650" width="80" height="26" as="geometry" />
        </mxCell>
        <mxCell id="mF9mltyFeMQ6EqQ499wP-23" value="&lt;font style=&quot;font-size: 19px;&quot;&gt;*&lt;/font&gt;" style="text;align=center;fontStyle=1;verticalAlign=middle;spacingLeft=3;spacingRight=3;strokeColor=none;rotatable=0;points=[[0,0.5],[1,0.5]];portConstraint=eastwest;html=1;" parent="1" vertex="1">
          <mxGeometry x="120" y="561" width="20" height="26" as="geometry" />
        </mxCell>
        <mxCell id="mF9mltyFeMQ6EqQ499wP-38" style="edgeStyle=orthogonalEdgeStyle;rounded=0;orthogonalLoop=1;jettySize=auto;html=1;entryX=0.5;entryY=1;entryDx=0;entryDy=0;" parent="1" source="mF9mltyFeMQ6EqQ499wP-25" target="mF9mltyFeMQ6EqQ499wP-34" edge="1">
          <mxGeometry relative="1" as="geometry" />
        </mxCell>
        <mxCell id="mF9mltyFeMQ6EqQ499wP-25" value="Product" style="swimlane;fontStyle=0;childLayout=stackLayout;horizontal=1;startSize=26;fillColor=#fff2cc;horizontalStack=0;resizeParent=1;resizeParentMax=0;resizeLast=0;collapsible=1;marginBottom=0;whiteSpace=wrap;html=1;strokeColor=#d6b656;" parent="1" vertex="1">
          <mxGeometry x="680" y="469" width="140" height="182" as="geometry" />
        </mxCell>
        <mxCell id="mF9mltyFeMQ6EqQ499wP-26" value="id :int" style="text;strokeColor=#d6b656;fillColor=#fff2cc;align=left;verticalAlign=top;spacingLeft=4;spacingRight=4;overflow=hidden;rotatable=0;points=[[0,0.5],[1,0.5]];portConstraint=eastwest;whiteSpace=wrap;html=1;" parent="mF9mltyFeMQ6EqQ499wP-25" vertex="1">
          <mxGeometry y="26" width="140" height="26" as="geometry" />
        </mxCell>
        <mxCell id="mF9mltyFeMQ6EqQ499wP-27" value="name :string" style="text;strokeColor=#d6b656;fillColor=#fff2cc;align=left;verticalAlign=top;spacingLeft=4;spacingRight=4;overflow=hidden;rotatable=0;points=[[0,0.5],[1,0.5]];portConstraint=eastwest;whiteSpace=wrap;html=1;" parent="mF9mltyFeMQ6EqQ499wP-25" vertex="1">
          <mxGeometry y="52" width="140" height="26" as="geometry" />
        </mxCell>
        <mxCell id="mF9mltyFeMQ6EqQ499wP-31" value="description: string" style="text;strokeColor=#d6b656;fillColor=#fff2cc;align=left;verticalAlign=top;spacingLeft=4;spacingRight=4;overflow=hidden;rotatable=0;points=[[0,0.5],[1,0.5]];portConstraint=eastwest;whiteSpace=wrap;html=1;" parent="mF9mltyFeMQ6EqQ499wP-25" vertex="1">
          <mxGeometry y="78" width="140" height="26" as="geometry" />
        </mxCell>
        <mxCell id="mF9mltyFeMQ6EqQ499wP-32" value="stockQuantity:int" style="text;strokeColor=#d6b656;fillColor=#fff2cc;align=left;verticalAlign=top;spacingLeft=4;spacingRight=4;overflow=hidden;rotatable=0;points=[[0,0.5],[1,0.5]];portConstraint=eastwest;whiteSpace=wrap;html=1;" parent="mF9mltyFeMQ6EqQ499wP-25" vertex="1">
          <mxGeometry y="104" width="140" height="26" as="geometry" />
        </mxCell>
        <mxCell id="mF9mltyFeMQ6EqQ499wP-33" value="image :strinf" style="text;strokeColor=#d6b656;fillColor=#fff2cc;align=left;verticalAlign=top;spacingLeft=4;spacingRight=4;overflow=hidden;rotatable=0;points=[[0,0.5],[1,0.5]];portConstraint=eastwest;whiteSpace=wrap;html=1;" parent="mF9mltyFeMQ6EqQ499wP-25" vertex="1">
          <mxGeometry y="130" width="140" height="26" as="geometry" />
        </mxCell>
        <mxCell id="mF9mltyFeMQ6EqQ499wP-28" value="price: float" style="text;strokeColor=#d6b656;fillColor=#fff2cc;align=left;verticalAlign=top;spacingLeft=4;spacingRight=4;overflow=hidden;rotatable=0;points=[[0,0.5],[1,0.5]];portConstraint=eastwest;whiteSpace=wrap;html=1;" parent="mF9mltyFeMQ6EqQ499wP-25" vertex="1">
          <mxGeometry y="156" width="140" height="26" as="geometry" />
        </mxCell>
        <mxCell id="mF9mltyFeMQ6EqQ499wP-34" value="Category" style="swimlane;fontStyle=0;childLayout=stackLayout;horizontal=1;startSize=26;fillColor=#fff2cc;horizontalStack=0;resizeParent=1;resizeParentMax=0;resizeLast=0;collapsible=1;marginBottom=0;whiteSpace=wrap;html=1;strokeColor=#d6b656;" parent="1" vertex="1">
          <mxGeometry x="570" y="200" width="140" height="156" as="geometry" />
        </mxCell>
        <mxCell id="mF9mltyFeMQ6EqQ499wP-35" value="id : int" style="text;strokeColor=#d6b656;fillColor=#fff2cc;align=left;verticalAlign=top;spacingLeft=4;spacingRight=4;overflow=hidden;rotatable=0;points=[[0,0.5],[1,0.5]];portConstraint=eastwest;whiteSpace=wrap;html=1;" parent="mF9mltyFeMQ6EqQ499wP-34" vertex="1">
          <mxGeometry y="26" width="140" height="26" as="geometry" />
        </mxCell>
        <mxCell id="YBohmv9X_SZ7JK_uAC-r-1" value="name :string" style="text;strokeColor=#d6b656;fillColor=#fff2cc;align=left;verticalAlign=top;spacingLeft=4;spacingRight=4;overflow=hidden;rotatable=0;points=[[0,0.5],[1,0.5]];portConstraint=eastwest;whiteSpace=wrap;html=1;" vertex="1" parent="mF9mltyFeMQ6EqQ499wP-34">
          <mxGeometry y="52" width="140" height="26" as="geometry" />
        </mxCell>
        <mxCell id="YBohmv9X_SZ7JK_uAC-r-2" value="image : string" style="text;strokeColor=#d6b656;fillColor=#fff2cc;align=left;verticalAlign=top;spacingLeft=4;spacingRight=4;overflow=hidden;rotatable=0;points=[[0,0.5],[1,0.5]];portConstraint=eastwest;whiteSpace=wrap;html=1;" vertex="1" parent="mF9mltyFeMQ6EqQ499wP-34">
          <mxGeometry y="78" width="140" height="26" as="geometry" />
        </mxCell>
        <mxCell id="mF9mltyFeMQ6EqQ499wP-36" value="slug : string" style="text;strokeColor=#d6b656;fillColor=#fff2cc;align=left;verticalAlign=top;spacingLeft=4;spacingRight=4;overflow=hidden;rotatable=0;points=[[0,0.5],[1,0.5]];portConstraint=eastwest;whiteSpace=wrap;html=1;" parent="mF9mltyFeMQ6EqQ499wP-34" vertex="1">
          <mxGeometry y="104" width="140" height="26" as="geometry" />
        </mxCell>
        <mxCell id="mF9mltyFeMQ6EqQ499wP-37" value="description :string" style="text;strokeColor=#d6b656;fillColor=#fff2cc;align=left;verticalAlign=top;spacingLeft=4;spacingRight=4;overflow=hidden;rotatable=0;points=[[0,0.5],[1,0.5]];portConstraint=eastwest;whiteSpace=wrap;html=1;" parent="mF9mltyFeMQ6EqQ499wP-34" vertex="1">
          <mxGeometry y="130" width="140" height="26" as="geometry" />
        </mxCell>
        <mxCell id="mF9mltyFeMQ6EqQ499wP-39" value="Appartient" style="text;align=center;fontStyle=1;verticalAlign=middle;spacingLeft=3;spacingRight=3;strokeColor=none;rotatable=0;points=[[0,0.5],[1,0.5]];portConstraint=eastwest;html=1;" parent="1" vertex="1">
          <mxGeometry x="660" y="350" width="80" height="26" as="geometry" />
        </mxCell>
        <mxCell id="mF9mltyFeMQ6EqQ499wP-40" value="&lt;span style=&quot;font-size: 17px;&quot;&gt;1&lt;/span&gt;" style="text;align=center;fontStyle=1;verticalAlign=middle;spacingLeft=3;spacingRight=3;strokeColor=none;rotatable=0;points=[[0,0.5],[1,0.5]];portConstraint=eastwest;html=1;" parent="1" vertex="1">
          <mxGeometry x="583" y="308" width="80" height="26" as="geometry" />
        </mxCell>
        <mxCell id="mF9mltyFeMQ6EqQ499wP-41" value="&lt;font style=&quot;font-size: 17px;&quot;&gt;*&lt;/font&gt;" style="text;align=center;fontStyle=1;verticalAlign=middle;spacingLeft=3;spacingRight=3;strokeColor=none;rotatable=0;points=[[0,0.5],[1,0.5]];portConstraint=eastwest;html=1;" parent="1" vertex="1">
          <mxGeometry x="740" y="443" width="80" height="26" as="geometry" />
        </mxCell>
        <mxCell id="mF9mltyFeMQ6EqQ499wP-45" value="acheter" style="text;align=center;fontStyle=1;verticalAlign=middle;spacingLeft=3;spacingRight=3;strokeColor=none;rotatable=0;points=[[0,0.5],[1,0.5]];portConstraint=eastwest;html=1;" parent="1" vertex="1">
          <mxGeometry x="378" y="448" width="80" height="26" as="geometry" />
        </mxCell>
        <mxCell id="mF9mltyFeMQ6EqQ499wP-46" value="&lt;font style=&quot;font-size: 17px;&quot;&gt;*&lt;/font&gt;" style="text;align=center;fontStyle=1;verticalAlign=middle;spacingLeft=3;spacingRight=3;strokeColor=none;rotatable=0;points=[[0,0.5],[1,0.5]];portConstraint=eastwest;html=1;" parent="1" vertex="1">
          <mxGeometry x="608" y="506" width="80" height="26" as="geometry" />
        </mxCell>
        <mxCell id="mF9mltyFeMQ6EqQ499wP-48" value="&lt;span style=&quot;font-size: 17px;&quot;&gt;1&lt;/span&gt;" style="text;align=center;fontStyle=1;verticalAlign=middle;spacingLeft=3;spacingRight=3;strokeColor=none;rotatable=0;points=[[0,0.5],[1,0.5]];portConstraint=eastwest;html=1;" parent="1" vertex="1">
          <mxGeometry x="230" y="443" width="80" height="26" as="geometry" />
        </mxCell>
      </root>
    </mxGraphModel>
  </diagram>
</mxfile>
